<svg width="120" height="120" viewBox="0 0 120 120" fill="none" xmlns="http://www.w3.org/2000/svg">
<circle cx="60" cy="60" r="60" fill="#5F2652"/>
<path fill-rule="evenodd" clip-rule="evenodd" d="M62.7243 19.236L94.1163 75.54C94.9683 76.992 94.4523 78.876 93.0603 79.776L61.6803 98.532C60.6685 99.1077 59.4282 99.1077 58.4163 98.532L26.9883 79.74C25.5243 78.876 25.0563 76.992 25.8723 75.54L57.2523 19.236C57.7951 18.2305 58.8457 17.6038 59.9883 17.6038C61.131 17.6038 62.1815 18.2305 62.7243 19.236ZM69.6243 52.2L70.3923 52.848C72.4231 54.6251 73.9642 56.8934 74.8683 59.436C75.1203 60.24 75.3363 61.056 75.3363 61.872L75.7203 63.408C76.1043 64.74 77.4243 68.376 79.4403 69.408C82.9083 71.208 87.3963 73.44 89.9283 74.676L61.4523 23.556V45.696C61.4523 50.028 55.2003 52.98 54.4683 53.28L53.1363 53.928C52.1721 54.5565 51.2929 55.3067 50.5203 56.16C50.4967 56.2066 50.4685 56.2508 50.4363 56.292C50.3524 56.3999 50.2774 56.4959 50.2025 56.5918C50.1274 56.6879 50.0524 56.7839 49.9683 56.892C49.9555 56.8917 49.9431 56.8966 49.934 56.9057C49.925 56.9148 49.92 56.9272 49.9203 56.94C49.7526 57.1473 49.5964 57.3636 49.4523 57.588C49.4287 57.6346 49.4005 57.6788 49.3683 57.72C49.3023 57.828 49.2483 57.924 49.1943 58.02C49.1403 58.116 49.0863 58.212 49.0203 58.32C48.9967 58.3666 48.9685 58.4108 48.9363 58.452C48.8129 58.6107 48.7348 58.7695 48.6496 58.9425C48.6189 59.0049 48.5873 59.0692 48.5523 59.136C48.5416 59.1611 48.534 59.1819 48.5275 59.2C48.5121 59.2426 48.502 59.2703 48.4683 59.304C48.3843 59.472 48.3003 59.688 48.2163 59.904C48.1996 59.9207 48.1907 59.9477 48.1811 59.9767C48.17 60.0102 48.1581 60.0463 48.1323 60.072L47.8803 60.84C47.8803 60.864 47.8683 60.885 47.8563 60.906C47.8443 60.927 47.8323 60.948 47.8323 60.972C47.8118 61.0954 47.7755 61.2188 47.7393 61.3423C47.7121 61.4348 47.6849 61.5274 47.6643 61.62C47.6643 61.662 47.6523 61.695 47.6403 61.728C47.6283 61.761 47.6163 61.794 47.6163 61.836C47.601 61.9318 47.5869 62.0239 47.5733 62.1131C47.5441 62.3033 47.517 62.4804 47.4843 62.652V62.736C47.4747 62.8064 47.4643 62.8733 47.4541 62.9385C47.4262 63.1177 47.4003 63.2832 47.4003 63.468V63.684C47.3604 63.9661 47.3444 64.2511 47.3523 64.536V64.752C47.3883 65.952 47.5563 67.104 47.9043 68.22C46.6563 67.62 45.5043 67.14 44.3883 66.888C44.2714 66.1216 44.2153 65.3472 44.2203 64.572V63.924C44.26 63.7713 44.2762 63.6135 44.2683 63.456C44.2683 63.372 44.2803 63.297 44.2923 63.222C44.3043 63.147 44.3163 63.072 44.3163 62.988C44.3163 62.922 44.3283 62.868 44.3403 62.814C44.3523 62.76 44.3643 62.706 44.3643 62.64C44.3799 62.5676 44.3887 62.493 44.3975 62.418C44.4093 62.3191 44.421 62.2196 44.4483 62.124C44.4636 62.0679 44.4724 62.0139 44.4812 61.9603C44.493 61.8878 44.5047 61.8159 44.5323 61.74C44.548 61.6824 44.5569 61.618 44.5659 61.5527C44.5775 61.4683 44.5893 61.3824 44.6163 61.308C44.6322 61.2709 44.6411 61.2245 44.6502 61.177C44.6617 61.1168 44.6735 61.0549 44.7003 61.008C44.7176 60.9274 44.7459 60.8358 44.776 60.7385C44.8086 60.6328 44.8434 60.5204 44.8683 60.408C44.8838 60.372 44.8926 60.336 44.9014 60.3C44.9132 60.252 44.9249 60.204 44.9523 60.156C45.0241 60.0061 45.0804 59.8493 45.1203 59.688C45.1431 59.6141 45.1712 59.5419 45.2043 59.472L45.4563 58.824C45.4791 58.7501 45.5072 58.6779 45.5403 58.608C45.5823 58.5 45.6243 58.404 45.6663 58.308C45.7083 58.212 45.7503 58.116 45.7923 58.008C45.8194 57.988 45.8368 57.9575 45.8403 57.924C45.8668 57.8712 45.8932 57.8136 45.9211 57.7527C45.9819 57.6201 46.0499 57.4721 46.1403 57.324C46.1511 57.2989 46.1586 57.2781 46.1652 57.2599C46.1806 57.2174 46.1907 57.1896 46.2243 57.156L46.6083 56.508C46.6083 56.4913 46.6187 56.4823 46.6298 56.4727C46.6426 56.4617 46.6563 56.4497 46.6563 56.424C46.7223 56.316 46.7853 56.22 46.8483 56.124C46.9113 56.028 46.9743 55.932 47.0403 55.824C47.0403 55.8073 47.0507 55.7983 47.0618 55.7887C47.0746 55.7777 47.0883 55.7657 47.0883 55.74C47.1723 55.632 47.2473 55.524 47.3223 55.416C47.3973 55.308 47.4723 55.2 47.5563 55.092L47.6043 55.044C47.9116 54.6138 48.257 54.2122 48.6363 53.844L48.6843 53.796C49.0354 53.3914 49.4208 53.018 49.8363 52.68C50.4959 52.1257 51.1981 51.6242 51.9363 51.18L52.0203 51.132C52.1092 51.082 52.1962 51.032 52.2822 50.9826C52.5674 50.8185 52.8412 50.6611 53.1363 50.532L53.3883 50.4C57.2883 48.636 58.4403 46.584 58.4403 45.816V23.592L30.2283 74.28C32.7963 72.78 37.0443 70.512 40.7643 69.312C42.5643 68.748 44.9163 69.264 47.7003 70.848C48.8877 71.5377 50.005 72.3415 51.0363 73.248L52.1523 74.28C52.8723 74.88 53.6523 75.348 54.5043 75.78C54.5477 75.7963 54.596 75.8223 54.6481 75.8505C54.7113 75.8846 54.78 75.9217 54.8523 75.948C54.869 75.9647 54.8961 75.9737 54.9251 75.9833C54.9586 75.9943 54.9946 76.0063 55.0203 76.032C55.1413 76.1029 55.2702 76.1593 55.4043 76.2C55.421 76.2167 55.4481 76.2257 55.4771 76.2353C55.5106 76.2463 55.5466 76.2583 55.5723 76.284C56.7002 76.7115 57.885 76.9703 59.0883 77.052C58.2243 77.856 57.4083 78.804 56.8563 79.872C56.1243 79.692 55.4043 79.476 54.6723 79.224C54.6245 79.224 54.5922 79.2084 54.5644 79.195C54.5434 79.1849 54.525 79.176 54.5043 79.176C54.4304 79.1532 54.3582 79.1252 54.2883 79.092C53.7723 78.876 53.3043 78.66 52.8363 78.408C52.8163 78.3809 52.7858 78.3635 52.7523 78.36L52.2363 78.108C51.4683 77.724 50.7843 77.208 50.1363 76.692L50.0523 76.608C49.7497 76.3866 49.4648 76.1418 49.2003 75.876L49.0683 75.744C47.0163 74.076 43.3803 71.772 41.6643 72.324C37.2963 73.692 31.9803 76.86 30.1443 77.976L58.4043 94.8V83.244C58.4043 78.924 64.6923 76.056 65.4243 75.756L65.6763 75.624C67.0923 74.94 68.3283 73.956 69.3603 72.804C69.3819 72.804 69.3906 72.791 69.4044 72.7703C69.4136 72.7565 69.4251 72.7392 69.4443 72.72C69.6221 72.5556 69.7792 72.3702 69.9123 72.168C69.9387 72.1482 69.9615 72.1139 69.9846 72.079C70.0036 72.0505 70.0227 72.0216 70.0443 72C70.1996 71.8084 70.3439 71.608 70.4763 71.4C70.4979 71.4 70.5066 71.387 70.5204 71.3663C70.5296 71.3525 70.5411 71.3352 70.5603 71.316C70.6263 71.19 70.7013 71.061 70.7763 70.932C70.8513 70.803 70.9263 70.674 70.9923 70.548C71.3167 69.9607 71.5898 69.3464 71.8083 68.712C72.3243 69.744 72.9723 70.848 73.8243 71.88C73.7009 72.072 73.5775 72.2797 73.4541 72.4873C73.3615 72.6431 73.2689 72.7988 73.1763 72.948C73.1763 72.9647 73.166 72.9737 73.1549 72.9832C73.1421 72.9943 73.1283 73.0063 73.1283 73.032L72.6123 73.8C72.5859 73.8198 72.5632 73.8541 72.54 73.889C72.5211 73.9175 72.5019 73.9464 72.4803 73.968C72.4236 74.0409 72.371 74.1138 72.3197 74.1849C72.2191 74.3244 72.1236 74.4567 72.0123 74.568C71.9929 74.6133 71.9596 74.6481 71.9254 74.6838C71.8962 74.7142 71.8665 74.7453 71.8443 74.784C71.6673 75.0312 71.4663 75.2603 71.2443 75.468L71.1603 75.552C71.0523 75.636 70.9563 75.732 70.8603 75.828C70.7643 75.924 70.6683 76.02 70.5603 76.104C70.515 76.1234 70.4802 76.1568 70.4446 76.1909C70.4141 76.2201 70.383 76.2499 70.3443 76.272C70.3197 76.3294 70.2727 76.3644 70.2301 76.3961C70.2103 76.4108 70.1915 76.4248 70.1763 76.44C69.5421 77.0047 68.8549 77.507 68.1243 77.94L67.9923 78.024C67.6443 78.228 67.3083 78.408 66.9603 78.576L66.8763 78.624C65.2083 79.344 61.5723 81.492 61.5723 83.328V94.884L89.7723 78.012C87.6363 76.992 82.2003 74.328 78.0843 72.192C74.4963 70.344 72.9483 64.872 72.7803 64.224L72.3963 62.724C72.2707 61.7844 72.0246 60.8648 71.6643 59.988C71.6143 59.9165 71.5771 59.8238 71.5374 59.725C71.5104 59.6579 71.4823 59.5879 71.4483 59.52C71.4281 59.4457 71.3927 59.3753 71.357 59.3044C71.3292 59.2492 71.3013 59.1937 71.2803 59.136C71.2383 59.07 71.2053 59.007 71.1723 58.944C71.1393 58.881 71.1063 58.818 71.0643 58.752C71.0223 58.686 70.9893 58.623 70.9563 58.56C70.9233 58.497 70.8903 58.434 70.8483 58.368C70.7957 58.3078 70.7572 58.2383 70.7151 58.1622C70.69 58.1169 70.6637 58.0693 70.6323 58.02L70.3803 57.636C70.3481 57.5475 70.2997 57.4805 70.246 57.4062C70.2196 57.3697 70.192 57.3314 70.1643 57.288L69.9123 56.904C69.8619 56.8536 69.8115 56.7902 69.7611 56.7269C69.7275 56.6846 69.6939 56.6424 69.6603 56.604C69.5516 56.4959 69.4513 56.3795 69.3603 56.256L69.1083 56.004L68.7603 55.656L68.5083 55.404C68.4423 55.338 68.3793 55.284 68.3163 55.23C68.2533 55.176 68.1903 55.122 68.1243 55.056C68.0823 55.014 68.0403 54.981 67.9983 54.948C67.9563 54.915 67.9143 54.882 67.8723 54.84C67.7405 54.7097 67.5957 54.5931 67.4403 54.492C67.3775 54.4251 67.3047 54.3684 67.2243 54.324C67.1776 54.2873 67.1337 54.2506 67.091 54.2149C66.9801 54.1223 66.8776 54.0366 66.7563 53.976C66.7363 53.9489 66.7058 53.9315 66.6723 53.928C66.0436 53.5343 65.3857 53.1893 64.7043 52.896C63.5523 52.428 62.2683 52.08 60.9363 51.996C61.7883 51.192 62.5683 50.244 63.1203 49.176C63.848 49.3153 64.5626 49.5161 65.2563 49.776C65.3823 49.818 65.5113 49.872 65.6403 49.926C65.7693 49.98 65.8983 50.034 66.0243 50.076C66.041 50.076 66.05 50.0863 66.0596 50.0974C66.0707 50.1102 66.0826 50.124 66.1083 50.124C66.1891 50.1595 66.2698 50.1942 66.3496 50.2284C66.5663 50.3214 66.7761 50.4115 66.9603 50.508C66.9771 50.508 66.986 50.5183 66.9956 50.5294C67.0067 50.5422 67.0186 50.556 67.0443 50.556C67.1044 50.586 67.1663 50.6161 67.2291 50.6465C67.4424 50.7499 67.6657 50.8582 67.8603 50.988C67.877 50.988 67.886 50.9983 67.8956 51.0094C67.9067 51.0222 67.9186 51.036 67.9443 51.036C68.2145 51.1873 68.4555 51.3483 68.6848 51.5016C68.7101 51.5185 68.7353 51.5353 68.7603 51.552L68.8083 51.6C69.0755 51.768 69.332 51.9523 69.5763 52.152L69.6243 52.2Z" fill="white"/>
</svg>
