<svg width="36" height="36" viewBox="0 0 36 36" fill="none" xmlns="http://www.w3.org/2000/svg">
<circle cx="18" cy="18" r="18" fill="#FDE7E7"/>
<path d="M21.1824 15.5251L15.5255 21.1819C15.3322 21.3752 15.0117 21.3752 14.8184 21.1819C14.6251 20.9886 14.6251 20.6681 14.8184 20.4748L20.4753 14.818C20.6685 14.6247 20.9891 14.6247 21.1824 14.818C21.3756 15.0112 21.3756 15.3318 21.1824 15.5251Z" fill="#E81313"/>
<path d="M21.1824 21.182C20.9891 21.3753 20.6685 21.3753 20.4753 21.182L14.8184 15.5252C14.6251 15.3319 14.6251 15.0114 14.8184 14.8181C15.0117 14.6248 15.3322 14.6248 15.5255 14.8181L21.1824 20.4749C21.3756 20.6682 21.3756 20.9888 21.1824 21.182Z" fill="#E81313"/>
</svg>
