<svg width="16" height="16" viewBox="0 0 16 16" fill="none" xmlns="http://www.w3.org/2000/svg">
<path d="M11.6263 10.2466C11.4996 10.2466 11.3729 10.2 11.2729 10.1C11.0796 9.90663 11.0796 9.58663 11.2729 9.39329L12.6263 8.03996L11.2729 6.68663C11.0796 6.49329 11.0796 6.17329 11.2729 5.97996C11.4663 5.78663 11.7863 5.78663 11.9796 5.97996L13.6863 7.68663C13.8796 7.87996 13.8796 8.19996 13.6863 8.39329L11.9796 10.1C11.8796 10.2 11.7529 10.2466 11.6263 10.2466Z" fill="#E81313"/>
<path d="M13.2868 8.54004H6.50684C6.2335 8.54004 6.00684 8.31337 6.00684 8.04004C6.00684 7.76671 6.2335 7.54004 6.50684 7.54004H13.2868C13.5602 7.54004 13.7868 7.76671 13.7868 8.04004C13.7868 8.31337 13.5602 8.54004 13.2868 8.54004Z" fill="#E81313"/>
<path d="M7.84017 13.8333C4.40684 13.8333 2.00684 11.4333 2.00684 7.99996C2.00684 4.56663 4.40684 2.16663 7.84017 2.16663C8.1135 2.16663 8.34017 2.39329 8.34017 2.66663C8.34017 2.93996 8.1135 3.16663 7.84017 3.16663C4.9935 3.16663 3.00684 5.15329 3.00684 7.99996C3.00684 10.8466 4.9935 12.8333 7.84017 12.8333C8.1135 12.8333 8.34017 13.06 8.34017 13.3333C8.34017 13.6066 8.1135 13.8333 7.84017 13.8333Z" fill="#E81313"/>
</svg>
