<svg width="113" height="48" viewBox="0 0 113 48" fill="none" xmlns="http://www.w3.org/2000/svg">
<path d="M103.371 26.1723C99.7465 26.1723 96.0879 26.1723 92.3949 26.1723C92.809 27.3888 93.5338 28.1883 94.6728 28.5706C96.2605 29.1267 97.6411 28.7444 98.8146 27.4931C99.5739 28.5358 100.333 29.5438 101.093 30.5518C98.8146 33.0543 94.3622 33.3324 91.601 31.3512C87.977 28.7791 87.7009 24.2954 89.2195 21.4801C91.3249 17.5873 95.5702 16.6488 98.9526 18.0739C102.266 19.4294 103.992 22.9051 103.371 26.1723ZM99.1597 23.2527C98.6765 22.0362 97.3305 21.2715 95.8808 21.3063C94.4657 21.3411 93.1542 22.1752 92.809 23.2527C94.8799 23.2527 96.9853 23.2527 99.1597 23.2527Z" fill="white"/>
<path d="M51.7021 17.483C52.9791 17.483 54.1871 17.483 55.4642 17.483C55.4642 17.6568 55.4987 17.8306 55.4987 18.0043C55.4987 20.3331 55.4987 22.6966 55.4987 25.0253C55.4987 26.9022 56.7412 28.3968 58.5705 28.7444C60.2617 29.0572 62.0565 28.1188 62.6777 26.4504C62.8848 25.929 62.9539 25.3382 62.9884 24.782C63.0229 22.5576 62.9884 20.2983 62.9884 18.0739C62.9884 17.9001 62.9884 17.7263 62.9884 17.5177C64.2309 17.5177 65.4734 17.5177 66.7505 17.5177C66.7505 17.5873 66.785 17.6568 66.785 17.7263C66.785 20.4026 66.8195 23.0789 66.7505 25.7205C66.6469 29.1962 63.6442 32.2896 60.1927 32.6372C56.7757 32.95 54.2217 31.6293 52.4959 28.6401C51.9437 27.6669 51.6676 26.6242 51.6676 25.5119C51.6331 22.9399 51.6676 20.3678 51.6676 17.761C51.6676 17.6915 51.7021 17.622 51.7021 17.483Z" fill="white"/>
<path d="M73.4463 17.483C74.9304 17.483 76.3456 17.483 77.7261 17.483C77.8642 17.483 78.0368 17.6568 78.1058 17.7958C78.8306 19.4989 79.5554 21.2368 80.3147 22.9399C80.3838 23.0789 80.4528 23.218 80.5563 23.4613C80.867 22.6966 81.1776 22.0014 81.4882 21.3063C81.9714 20.1245 82.4892 18.9428 83.0069 17.7958C83.0759 17.6568 83.2485 17.5177 83.352 17.483C84.6981 17.4482 86.0787 17.483 87.5283 17.483C85.2158 22.4185 82.9033 27.2846 80.5563 32.2201C78.1403 27.2846 75.8278 22.4185 73.4463 17.483Z" fill="white"/>
<path d="M113 17.483C113 18.769 113 20.0203 113 21.1325C112.275 21.4106 111.585 21.5496 110.964 21.9319C109.825 22.6271 109.273 23.7046 109.273 25.0601C109.273 27.2498 109.273 29.4395 109.273 31.6293C109.273 31.803 109.273 31.9421 109.273 32.1506C107.995 32.1506 106.753 32.1506 105.476 32.1506C105.476 32.0116 105.441 31.8378 105.441 31.6988C105.441 29.4048 105.441 27.1455 105.441 24.8516C105.441 20.9587 108.617 17.622 112.448 17.4482C112.62 17.483 112.793 17.483 113 17.483Z" fill="white"/>
<path d="M68.7523 17.483C69.9603 17.483 71.1338 17.483 72.3073 17.483C72.3764 17.483 72.4454 17.5177 72.5489 17.5177C72.5489 22.4185 72.5489 27.2846 72.5489 32.1854C71.2719 32.1854 70.0294 32.1854 68.7523 32.1854C68.7523 27.2846 68.7523 22.4185 68.7523 17.483Z" fill="white"/>
<path d="M48.5613 22.8704C48.5613 23.6003 48.5613 24.365 48.5613 25.0949C48.5267 25.2339 48.4577 25.3382 48.4577 25.4772C48.2851 28.9529 47.3878 32.2549 45.6965 35.3135C42.038 41.9522 36.5502 46.0536 29.1295 47.5482C28.0251 47.7567 26.9206 47.861 25.8161 48C25.0913 48 24.332 48 23.6072 48C22.5027 47.861 21.3982 47.7567 20.2938 47.5482C9.83585 45.6017 1.69039 36.6343 1.0001 25.5119C0.827526 21.7929 1.34525 18.1781 2.82937 14.7371C6.10826 7.22954 11.7341 2.50253 19.638 0.590876C20.846 0.312817 22.054 0.208545 23.2966 0C24.2975 0 25.2984 0 26.2993 0C26.4374 0.0347574 26.5409 0.104272 26.679 0.104272C30.0269 0.347574 33.2023 1.28602 36.136 2.95438C42.8318 6.7777 46.9046 12.5474 48.2161 20.2288C48.3887 21.0978 48.4577 22.0014 48.5613 22.8704ZM24.7462 38.7198C32.7881 38.7198 39.3459 32.1506 39.3459 24.0521C39.3459 15.9189 32.8226 9.24547 24.7807 9.24547C16.8078 9.24547 10.2155 15.8146 10.1465 23.7046C10.0774 31.9768 16.6697 38.7198 24.7462 38.7198Z" fill="white"/>
<path d="M70.4435 15.9884C71.6444 15.9884 72.618 15.008 72.618 13.7987C72.618 12.5893 71.6444 11.609 70.4435 11.609C69.2426 11.609 68.2691 12.5893 68.2691 13.7987C68.2691 15.008 69.2426 15.9884 70.4435 15.9884Z" fill="white"/>
<path d="M24.1594 23.8783L35.8599 27.1455L33.2023 29.7871C33.2023 29.7871 38.7591 35.6611 39.2768 36.0434C39.7946 36.4258 40.4503 36.8776 41.1751 35.4178C41.8999 33.958 42.9699 29.9609 47.7329 29.231C47.7329 29.231 50.3215 28.6401 53.5314 31.1079C56.7412 33.5757 59.1573 35.3483 59.1573 35.3483L56.3961 39.2411C56.3961 39.2411 51.6331 35.4178 50.6322 34.7574C49.6312 34.097 47.7329 33.0543 46.4559 35.3135C45.1788 37.538 43.7983 41.9174 39.3113 41.1528C39.3113 41.1528 38.1033 41.8479 35.2386 38.6155C32.3739 35.3831 30.0959 32.9153 30.0959 32.9153L27.3003 35.9392L24.1594 23.8783Z" fill="#0E3641"/>
</svg>
